<mxfile host="app.diagrams.net" agent="Mozilla/5.0 (Windows NT 10.0; Win64; x64) AppleWebKit/537.36 (KHTML, like Gecko) Chrome/131.0.0.0 Safari/537.36" version="26.0.6">
  <diagram name="Page-1" id="IHH67tnD_7O1E7yeXCKK">
    <mxGraphModel dx="1434" dy="738" grid="1" gridSize="10" guides="1" tooltips="1" connect="1" arrows="1" fold="1" page="1" pageScale="1" pageWidth="827" pageHeight="1169" math="0" shadow="0">
      <root>
        <mxCell id="0" />
        <mxCell id="1" parent="0" />
        <mxCell id="bBLJlBjyzAbnvOoha3af-1" value="Database" style="whiteSpace=wrap;strokeWidth=2;" vertex="1" parent="1">
          <mxGeometry x="1232" y="408" width="212" height="492" as="geometry" />
        </mxCell>
        <mxCell id="bBLJlBjyzAbnvOoha3af-2" value="Backend" style="whiteSpace=wrap;strokeWidth=2;" vertex="1" parent="1">
          <mxGeometry x="419" y="268" width="609" height="593" as="geometry" />
        </mxCell>
        <mxCell id="bBLJlBjyzAbnvOoha3af-3" value="Frontend" style="whiteSpace=wrap;strokeWidth=2;" vertex="1" parent="1">
          <mxGeometry x="20" y="20" width="1424" height="229" as="geometry" />
        </mxCell>
        <mxCell id="bBLJlBjyzAbnvOoha3af-4" value="Ứng dụng Phục vụ" style="whiteSpace=wrap;strokeWidth=2;" vertex="1" parent="1">
          <mxGeometry x="49" y="56" width="192" height="54" as="geometry" />
        </mxCell>
        <mxCell id="bBLJlBjyzAbnvOoha3af-5" value="Ứng dụng Bếp" style="whiteSpace=wrap;strokeWidth=2;" vertex="1" parent="1">
          <mxGeometry x="1257" y="108" width="162" height="54" as="geometry" />
        </mxCell>
        <mxCell id="bBLJlBjyzAbnvOoha3af-6" value="Ứng dụng Thu ngân" style="whiteSpace=wrap;strokeWidth=2;" vertex="1" parent="1">
          <mxGeometry x="45" y="160" width="200" height="54" as="geometry" />
        </mxCell>
        <mxCell id="bBLJlBjyzAbnvOoha3af-7" value="API Gateway" style="whiteSpace=wrap;strokeWidth=2;" vertex="1" parent="1">
          <mxGeometry x="444" y="509" width="150" height="54" as="geometry" />
        </mxCell>
        <mxCell id="bBLJlBjyzAbnvOoha3af-8" value="Order Service" style="whiteSpace=wrap;strokeWidth=2;" vertex="1" parent="1">
          <mxGeometry x="813" y="451" width="157" height="54" as="geometry" />
        </mxCell>
        <mxCell id="bBLJlBjyzAbnvOoha3af-9" value="Notification Service" style="whiteSpace=wrap;strokeWidth=2;" vertex="1" parent="1">
          <mxGeometry x="791" y="304" width="201" height="54" as="geometry" />
        </mxCell>
        <mxCell id="bBLJlBjyzAbnvOoha3af-10" value="Authentication Service" style="whiteSpace=wrap;strokeWidth=2;" vertex="1" parent="1">
          <mxGeometry x="780" y="568" width="223" height="54" as="geometry" />
        </mxCell>
        <mxCell id="bBLJlBjyzAbnvOoha3af-11" value="Order DB" style="shape=cylinder3;boundedLbl=1;backgroundOutline=1;size=10;strokeWidth=2;whiteSpace=wrap;" vertex="1" parent="1">
          <mxGeometry x="1298" y="443" width="80" height="68" as="geometry" />
        </mxCell>
        <mxCell id="bBLJlBjyzAbnvOoha3af-12" value="User DB" style="shape=cylinder3;boundedLbl=1;backgroundOutline=1;size=10;strokeWidth=2;whiteSpace=wrap;" vertex="1" parent="1">
          <mxGeometry x="1303" y="562" width="70" height="66" as="geometry" />
        </mxCell>
        <mxCell id="bBLJlBjyzAbnvOoha3af-13" value="Menu DB" style="shape=cylinder3;boundedLbl=1;backgroundOutline=1;size=10;strokeWidth=2;whiteSpace=wrap;" vertex="1" parent="1">
          <mxGeometry x="1300" y="678" width="76" height="67" as="geometry" />
        </mxCell>
        <mxCell id="bBLJlBjyzAbnvOoha3af-14" value="Invoice DB" style="shape=cylinder3;boundedLbl=1;backgroundOutline=1;size=10;strokeWidth=2;whiteSpace=wrap;" vertex="1" parent="1">
          <mxGeometry x="1293" y="795" width="90" height="70" as="geometry" />
        </mxCell>
        <mxCell id="bBLJlBjyzAbnvOoha3af-15" value="Gửi order" style="curved=1;startArrow=none;endArrow=block;exitX=1;exitY=0.78;entryX=0.46;entryY=0;rounded=0;" edge="1" parent="1" source="bBLJlBjyzAbnvOoha3af-4" target="bBLJlBjyzAbnvOoha3af-7">
          <mxGeometry relative="1" as="geometry">
            <Array as="points">
              <mxPoint x="332" y="113" />
              <mxPoint x="419" y="113" />
            </Array>
          </mxGeometry>
        </mxCell>
        <mxCell id="bBLJlBjyzAbnvOoha3af-16" value="Nhận thông báo order mới" style="curved=1;startArrow=none;endArrow=block;exitX=0;exitY=0.79;entryX=0.73;entryY=0;rounded=0;" edge="1" parent="1" source="bBLJlBjyzAbnvOoha3af-5" target="bBLJlBjyzAbnvOoha3af-7">
          <mxGeometry relative="1" as="geometry">
            <Array as="points">
              <mxPoint x="1232" y="156" />
              <mxPoint x="1130" y="156" />
              <mxPoint x="1028" y="404" />
              <mxPoint x="687" y="404" />
            </Array>
          </mxGeometry>
        </mxCell>
        <mxCell id="bBLJlBjyzAbnvOoha3af-17" value="Xử lý thanh toán" style="curved=1;startArrow=none;endArrow=block;exitX=1;exitY=0.49;entryX=0.45;entryY=0;rounded=0;" edge="1" parent="1" source="bBLJlBjyzAbnvOoha3af-6" target="bBLJlBjyzAbnvOoha3af-7">
          <mxGeometry relative="1" as="geometry">
            <Array as="points">
              <mxPoint x="419" y="187" />
            </Array>
          </mxGeometry>
        </mxCell>
        <mxCell id="bBLJlBjyzAbnvOoha3af-18" value="Xử lý logic" style="curved=1;startArrow=none;endArrow=block;exitX=1;exitY=0.02;entryX=0;entryY=0.49;rounded=0;" edge="1" parent="1" source="bBLJlBjyzAbnvOoha3af-7" target="bBLJlBjyzAbnvOoha3af-8">
          <mxGeometry relative="1" as="geometry">
            <Array as="points">
              <mxPoint x="687" y="478" />
            </Array>
          </mxGeometry>
        </mxCell>
        <mxCell id="bBLJlBjyzAbnvOoha3af-19" value="Lưu order" style="curved=1;startArrow=none;endArrow=block;exitX=1;exitY=0.49;entryX=0.01;entryY=0.51;rounded=0;" edge="1" parent="1" source="bBLJlBjyzAbnvOoha3af-8" target="bBLJlBjyzAbnvOoha3af-11">
          <mxGeometry relative="1" as="geometry">
            <Array as="points" />
          </mxGeometry>
        </mxCell>
        <mxCell id="bBLJlBjyzAbnvOoha3af-20" value="Quản lý thông báo" style="curved=1;startArrow=none;endArrow=block;exitX=0.65;exitY=0;entryX=0;entryY=0.49;rounded=0;" edge="1" parent="1" source="bBLJlBjyzAbnvOoha3af-7" target="bBLJlBjyzAbnvOoha3af-9">
          <mxGeometry relative="1" as="geometry">
            <Array as="points">
              <mxPoint x="687" y="331" />
            </Array>
          </mxGeometry>
        </mxCell>
        <mxCell id="bBLJlBjyzAbnvOoha3af-21" value="Gửi thông báo" style="curved=1;startArrow=none;endArrow=block;exitX=0.4;exitY=-0.01;entryX=1;entryY=0.34;rounded=0;" edge="1" parent="1" source="bBLJlBjyzAbnvOoha3af-9" target="bBLJlBjyzAbnvOoha3af-4">
          <mxGeometry relative="1" as="geometry">
            <Array as="points">
              <mxPoint x="687" y="67" />
              <mxPoint x="332" y="67" />
            </Array>
          </mxGeometry>
        </mxCell>
        <mxCell id="bBLJlBjyzAbnvOoha3af-22" value="Gửi thông báo" style="curved=1;startArrow=none;endArrow=block;exitX=1;exitY=0.49;entryX=0;entryY=0.27;rounded=0;" edge="1" parent="1" source="bBLJlBjyzAbnvOoha3af-9" target="bBLJlBjyzAbnvOoha3af-5">
          <mxGeometry relative="1" as="geometry">
            <Array as="points">
              <mxPoint x="1028" y="331" />
              <mxPoint x="1130" y="119" />
              <mxPoint x="1232" y="119" />
            </Array>
          </mxGeometry>
        </mxCell>
        <mxCell id="bBLJlBjyzAbnvOoha3af-23" value="Quản lý xác thực" style="curved=1;startArrow=none;endArrow=block;exitX=1;exitY=0.99;entryX=0;entryY=0.49;rounded=0;" edge="1" parent="1" source="bBLJlBjyzAbnvOoha3af-7" target="bBLJlBjyzAbnvOoha3af-10">
          <mxGeometry relative="1" as="geometry">
            <Array as="points">
              <mxPoint x="687" y="595" />
            </Array>
          </mxGeometry>
        </mxCell>
        <mxCell id="bBLJlBjyzAbnvOoha3af-24" value="Xác thực người dùng" style="curved=1;startArrow=none;endArrow=block;exitX=1;exitY=0.49;entryX=0;entryY=0.49;rounded=0;" edge="1" parent="1" source="bBLJlBjyzAbnvOoha3af-10" target="bBLJlBjyzAbnvOoha3af-12">
          <mxGeometry relative="1" as="geometry">
            <Array as="points" />
          </mxGeometry>
        </mxCell>
        <mxCell id="bBLJlBjyzAbnvOoha3af-25" value="Lấy menu" style="curved=1;startArrow=none;endArrow=block;exitX=0.68;exitY=1;entryX=0;entryY=0.5;rounded=0;" edge="1" parent="1" source="bBLJlBjyzAbnvOoha3af-7" target="bBLJlBjyzAbnvOoha3af-13">
          <mxGeometry relative="1" as="geometry">
            <Array as="points">
              <mxPoint x="687" y="711" />
            </Array>
          </mxGeometry>
        </mxCell>
        <mxCell id="bBLJlBjyzAbnvOoha3af-26" value="Lưu hóa đơn" style="curved=1;startArrow=none;endArrow=block;exitX=0.61;exitY=1;entryX=0.01;entryY=0.5;rounded=0;" edge="1" parent="1" source="bBLJlBjyzAbnvOoha3af-7" target="bBLJlBjyzAbnvOoha3af-14">
          <mxGeometry relative="1" as="geometry">
            <Array as="points">
              <mxPoint x="687" y="830" />
            </Array>
          </mxGeometry>
        </mxCell>
      </root>
    </mxGraphModel>
  </diagram>
</mxfile>
